<svg id="FBOOK" xmlns="http://www.w3.org/2000/svg" width="108" height="124" viewBox="0 0 108 124"><defs><style>.cls-1,.cls-2{fill-rule:evenodd}.cls-1{stroke:#191917;stroke-width:4px;fill:none}.cls-2{fill:#191917}</style></defs><path id="HEX" class="cls-1" d="M4940 5522l-52 30v60l52 30 52-30v-60z" transform="translate(-4886 -5520)"/><path class="cls-2" d="M4935.58 5559.52a10.844 10.844 0 0 1 7.23-2.51c2.73-.02 5.45-.01 8.18-.01q.015 4.305 0 8.59c-1.76-.01-3.53 0-5.29-.01a2.453 2.453 0 0 0-2.47 1.88c-.02 1.91 0 3.83 0 5.74 2.58.01 5.16 0 7.75.01-.19 2.77-.54 5.52-.94 8.27-2.28.02-4.57 0-6.85.01-.02 8.17.01 16.33-.02 24.5-3.39.01-6.78-.01-10.17.01-.06-8.17.01-16.34-.04-24.51-1.65-.02-3.3.01-4.96-.01.01-2.75 0-5.49.01-8.24 1.65-.02 3.3.01 4.95-.01.06-2.67-.05-5.34.06-8.01a8.58 8.58 0 0 1 2.56-5.7z" transform="translate(-4886 -5520)"/></svg>