<svg id="FBOOK" xmlns="http://www.w3.org/2000/svg" width="108" height="124" viewBox="0 0 108 124"><defs><style>.cls-1,.cls-2{fill-rule:evenodd}.cls-1{stroke:#000;stroke-width:4px;fill:none}.cls-2{fill:#191917}</style></defs><path id="HEX" class="cls-1" d="M5460 5522l-52 30v60l52 30 52-30v-60z" transform="translate(-5406 -5520)"/><path class="cls-2" d="M5461 5562.32c6.41 0 7.17.03 9.7.14a13.221 13.221 0 0 1 4.45.83 8 8 0 0 1 4.56 4.56 13.221 13.221 0 0 1 .83 4.45c.11 2.53.14 3.29.14 9.7s-.03 7.17-.14 9.7a13.221 13.221 0 0 1-.83 4.45 8 8 0 0 1-4.56 4.56 13.221 13.221 0 0 1-4.45.83c-2.53.11-3.29.14-9.7.14s-7.17-.03-9.7-.14a13.221 13.221 0 0 1-4.45-.83 8 8 0 0 1-4.56-4.56 13.221 13.221 0 0 1-.83-4.45c-.11-2.53-.14-3.29-.14-9.7s.03-7.17.14-9.7a13.221 13.221 0 0 1 .83-4.45 8 8 0 0 1 4.56-4.56 13.221 13.221 0 0 1 4.45-.83c2.53-.11 3.29-.14 9.7-.14m0-4.32c-6.52 0-7.34.03-9.9.14a17.783 17.783 0 0 0-5.82 1.12 12.3 12.3 0 0 0-7.02 7.02 17.783 17.783 0 0 0-1.12 5.82c-.11 2.56-.14 3.38-.14 9.9s.03 7.34.14 9.9a17.783 17.783 0 0 0 1.12 5.82 12.3 12.3 0 0 0 7.02 7.02 17.783 17.783 0 0 0 5.82 1.12c2.56.11 3.38.14 9.9.14s7.34-.03 9.89-.14a17.794 17.794 0 0 0 5.83-1.12 12.3 12.3 0 0 0 7.02-7.02 17.783 17.783 0 0 0 1.12-5.82c.11-2.56.14-3.38.14-9.9s-.03-7.34-.14-9.9a17.783 17.783 0 0 0-1.12-5.82 12.3 12.3 0 0 0-7.02-7.02 17.794 17.794 0 0 0-5.83-1.12c-2.55-.11-3.37-.14-9.89-.14zm0 11.68a12.32 12.32 0 1 0 12.32 12.32 12.313 12.313 0 0 0-12.32-12.32zm0 20.32a8 8 0 1 1 8-8 8 8 0 0 1-8 8zm15.69-20.81a2.88 2.88 0 1 1-2.88-2.88 2.881 2.881 0 0 1 2.88 2.88z" transform="translate(-5406 -5520)"/></svg>