<svg id="FBOOK" xmlns="http://www.w3.org/2000/svg" width="108" height="124" viewBox="0 0 108 124"><defs><style>.cls-1,.cls-2{fill-rule:evenodd}.cls-1{stroke:#000;stroke-width:4px;fill:none}.cls-2{fill:#191917}</style></defs><path id="HEX" class="cls-1" d="M5980 5522l-52 30v60l52 30 52-30v-60z" transform="translate(-5926 -5520)"/><path class="cls-2" d="M6003.18 5571.3a6.041 6.041 0 0 0-5.19-4.65 245.239 245.239 0 0 0-35.96 0 6.041 6.041 0 0 0-5.19 4.65 75.464 75.464 0 0 0-.01 22.39 6.053 6.053 0 0 0 5.19 4.65 249 249 0 0 0 35.96 0 6.03 6.03 0 0 0 5.18-4.65 49.868 49.868 0 0 0 .84-11.2 50.406 50.406 0 0 0-.82-11.19zm-29.37 18.54v-15.66c5.08 2.62 10.14 5.22 15.26 7.86-5.11 2.61-10.16 5.19-15.26 7.8z" transform="translate(-5926 -5520)"/></svg>