<svg xmlns="http://www.w3.org/2000/svg" width="377" height="435" viewBox="0 0 377 435"><defs><style>.cls-1{fill:#ecae2e;fill-rule:evenodd}</style></defs><path class="cls-1" d="M15.75 317.16V117.84l172.76-99.65 172.75 99.65v199.32l-172.75 99.66zM188.51.01L0 108.75v217.5L188.51 435l188.51-108.75v-217.5zm-25.08 245.13c.84 1.73 6.16 10.85 25.16 11.54 18.82-.69 24.17-9.86 25-11.54l1.06-16.67a2.308 2.308 0 0 1 .71-1.5c.11-.11 12.28-12.03 11.18-38.94a2.261 2.261 0 0 1 2.62-2.32c14.4 2.31 22.8.07 22.89.05.28-.13 12.1-5.3 13.23-24.15h-41.02a2.261 2.261 0 0 1-1.37-.46c-.16-.12-9.91-7-34.33-6.45-24.81.57-34.5 6.5-34.59 6.56a2.37 2.37 0 0 1-1.22.35h-41.01c1.12 18.83 12.93 24.01 13.48 24.24.07 0 8.44 2.15 22.64-.14a2.248 2.248 0 0 1 2.61 2.32c-1.1 27.08 11.06 38.83 11.18 38.94a2.262 2.262 0 0 1 .71 1.5zm25.16 16.05c-23.9-.87-29.28-14.13-29.5-14.69a2.164 2.164 0 0 1-.14-.67l-1.04-16.24c-2.66-2.9-12.28-15.06-12.02-39.04-13.82 1.83-21.79-.35-22.14-.45-.9-.34-16.31-6.87-16.61-30.72a2.3 2.3 0 0 1 .65-1.61 2.279 2.279 0 0 1 1.61-.67h42.75c2.58-1.41 13.26-6.38 36.3-6.91 22.99-.56 33.8 5.19 36.5 6.91h42.66a2.254 2.254 0 0 1 2.26 2.28c-.3 23.85-15.71 30.38-16.36 30.65-.58.16-8.55 2.35-22.39.52.26 23.98-9.35 36.14-12.01 39.04l-1.04 16.24a2.509 2.509 0 0 1-.15.67c-.22.56-5.59 13.82-29.33 14.69m-42.16 61.28a2.082 2.082 0 0 1-3.8 0l-11.78-26.54a2.053 2.053 0 1 1 3.76-1.65l9.92 22.49 9.92-22.49a2.058 2.058 0 0 1 3.77 1.65zm38.82-.75a1.976 1.976 0 0 1-1.97 1.98h-17.66a2.046 2.046 0 0 1-2.05-2.05v-26.28a2.046 2.046 0 0 1 2.05-2.05h17.66a1.975 1.975 0 0 1 0 3.95h-15.6v10.15h13.18a1.98 1.98 0 1 1 0 3.96h-13.18v8.37l15.6-.01a1.976 1.976 0 0 1 1.97 1.98m24.43-9.5l-5.4-12.24-5.39 12.24h10.79zm7.24 11.31a2.073 2.073 0 0 1-2.72-1.06l-2.7-6.14h-14.42l-2.72 6.14a2.053 2.053 0 1 1-3.76-1.65l11.78-26.54a2.082 2.082 0 0 1 3.8 0l11.79 26.54a2.064 2.064 0 0 1-1.05 2.71m29.43-1.81a1.978 1.978 0 0 1-1.98 1.98h-18.99a2.055 2.055 0 0 1-2.06-2.05v-26.28a2.06 2.06 0 0 1 4.12 0v24.38h16.93a1.976 1.976 0 0 1 1.98 1.97"/></svg>