<svg xmlns="http://www.w3.org/2000/svg" width="377" height="435" viewBox="0 0 377 435"><defs><style>.cls-1{fill:#ceb191;fill-rule:evenodd}</style></defs><path class="cls-1" d="M15.75 317.15V117.84L188.5 18.18l172.76 99.66v199.31L188.5 416.81zM188.5 0L0 108.75v217.49l188.5 108.75 188.51-108.75V108.75zm38.91 180zm-79.18-4.03a7.125 7.125 0 0 1 3.83 1 3.9 3.9 0 0 1 2.06 3.15c-.16 6.12 2.02 20.27 3.31 28.72l.66 4.29c2.38 16.26 8.58 43.54 23.41 43.54h14.01c14.83 0 21.03-27.28 23.41-43.54l.63-4.19c1.31-8.48 3.49-22.68 3.34-28.82a3.9 3.9 0 0 1 2.04-3.14c1.91-1.19 5.5-1.92 11.84 1.36a58.78 58.78 0 0 1 6.46 4.2c5.53 3.92 12.19 8.63 21.36 10.09-2.16-2.75-4.49-6.32-7.13-10.38-2.71-4.16-5.51-8.46-8.58-12.55-7.55-10.06-21.87-14.57-22.01-14.62a2.206 2.206 0 0 1-1.11-.76c-.07-.09-6.83-8.7-10.44-11.59a2.25 2.25 0 0 1-.73-1.04c-1.66-4.97-2.49-15.91 6.27-21.74 3.81-2.54 8.05-2.39 11.81-2.28 3.29.11 6.4.21 9.05-1.35a21.109 21.109 0 0 0 3.75-2.74c-4.15.26-10.13.34-14.36-.9-1.42-.42-2.86-.98-4.33-1.54-5.19-2.02-10.1-3.91-16.22-.23-3.94 2.36-7.35 15.19-8.58 22.72a2.255 2.255 0 0 1-2.07 1.88l-11.25.77-11.56-.77a2.255 2.255 0 0 1-2.07-1.88c-1.23-7.53-4.65-20.36-8.59-22.72-6.11-3.69-11.02-1.79-16.21.22-1.47.57-2.91 1.13-4.34 1.55-4.23 1.24-10.22 1.16-14.36.9a20.871 20.871 0 0 0 3.76 2.74c2.66 1.56 5.78 1.46 9.05 1.35 3.75-.12 8-.26 11.81 2.28 8.76 5.83 7.93 16.77 6.27 21.74a2.331 2.331 0 0 1-.73 1.05c-3.61 2.88-10.37 11.49-10.45 11.58a2.222 2.222 0 0 1-1.1.76c-.15.05-14.46 4.56-22.02 14.62-3.07 4.09-5.87 8.39-8.57 12.55-2.65 4.07-4.97 7.63-7.13 10.38 9.16-1.46 15.83-6.17 21.36-10.09a58.78 58.78 0 0 1 6.46-4.2 17.786 17.786 0 0 1 7.99-2.37m47.28 85.21H181.5c-17.31 0-24.72-25.77-27.88-47.4l-.65-4.25c-1.27-8.29-3.38-21.97-3.38-28.78-.73-.4-2.94-.65-7.27 1.6a57.148 57.148 0 0 0-5.94 3.87c-6.77 4.8-16.06 11.37-29.74 11.37a2.255 2.255 0 0 1-1.28-4.11c2.72-1.88 6.45-7.61 10.4-13.68 2.62-4.03 5.59-8.59 8.76-12.81 7.54-10.04 20.45-14.92 23.6-16 1.52-1.9 6.67-8.27 10.19-11.31.63-2.38 2.42-11.26-4.66-15.98-2.61-1.73-5.64-1.63-9.16-1.52-3.61.12-7.71.25-11.49-1.97-7.14-4.2-8.03-8.23-8.14-9a2.23 2.23 0 0 1 .63-1.9 2.373 2.373 0 0 1 1.9-.65c.11.02 11.22 1.46 17.23-.31 1.31-.38 2.63-.9 3.98-1.42 5.42-2.1 12.15-4.71 20.17.11 6.06 3.64 9.38 18.66 10.4 24.09l9.49.65 9.18-.64c1.02-5.43 4.34-20.46 10.39-24.1 8.02-4.82 14.76-2.21 20.18-.11 1.35.52 2.67 1.04 3.98 1.42 6.03 1.77 17.12.33 17.23.31a2.35 2.35 0 0 1 1.9.65 2.23 2.23 0 0 1 .63 1.9c-.11.77-1 4.8-8.14 9-3.78 2.23-7.88 2.09-11.49 1.97-3.54-.11-6.56-.21-9.16 1.52-7.09 4.72-5.29 13.6-4.65 15.98 3.5 3.04 8.66 9.41 10.18 11.31 3.14 1.08 16.07 5.96 23.6 16 3.16 4.21 6.13 8.78 8.75 12.8 3.95 6.07 7.69 11.81 10.41 13.69a2.255 2.255 0 0 1-1.28 4.11c-13.7 0-22.98-6.57-29.75-11.37a54.545 54.545 0 0 0-5.93-3.87c-4.34-2.25-6.55-2.01-7.27-1.61-.01 6.85-2.12 20.57-3.4 28.89l-.64 4.15c-3.15 21.63-10.55 47.4-27.87 47.4m-40.08 48.55a2.063 2.063 0 0 0-2.06-2.06l-8.94.01a1.975 1.975 0 0 0 0 3.95h6.89v4.09a11.539 11.539 0 1 1-8.71-19.35 11.269 11.269 0 0 1 8.5 3.9 1.975 1.975 0 0 0 1.48.64 2.023 2.023 0 0 0 1.45-3.42 15.359 15.359 0 0 0-11.43-5.07 15.636 15.636 0 0 0 0 31.27 15.707 15.707 0 0 0 11.88-5.44 3.437 3.437 0 0 0 .94-2.62v-5.9m33.44-1.68a11.625 11.625 0 1 0-11.63 11.69 11.657 11.657 0 0 0 11.63-11.69m-27.37 0a15.74 15.74 0 1 1 15.74 15.64 15.689 15.689 0 0 1-15.74-15.64m53.67 4.16l-5.4-12.24-5.39 12.24h10.79zm7.23 11.31a2.057 2.057 0 0 1-2.71-1.06l-2.71-6.14h-14.42l-2.71 6.14a2.053 2.053 0 1 1-3.76-1.65l11.78-26.54a2.082 2.082 0 0 1 3.8 0l11.79 26.54a2.057 2.057 0 0 1-1.06 2.71m28.32-28.23a1.985 1.985 0 0 0-1.98-1.98h-22.65a1.98 1.98 0 1 0 0 3.96h9.27v24.37a2.055 2.055 0 0 0 4.11 0v-24.37h9.27a1.985 1.985 0 0 0 1.98-1.98"/></svg>