<svg xmlns="http://www.w3.org/2000/svg" width="377" height="436" viewBox="0 0 377 436"><defs><style>.cls-1{fill:#5373f5;fill-rule:evenodd}</style></defs><path class="cls-1" d="M15.75 317.87V118.1L188.5 18.21l172.76 99.89v199.77l-172.76 99.9zM188.5-.01L0 108.99v218l188.5 108.99 188.51-108.99v-218zm-28.06 243.84c.91 1.91 6.98 12.62 29.01 13.43 22.07-.82 26.59-11.79 27.11-13.3l1.23-21.23a2.429 2.429 0 0 1 .18-.74c.14-.35 14.68-35.87 13.4-67.49a2.248 2.248 0 0 1 2.61-2.32c16.53 2.66 26.17.08 26.26.05.37-.17 14.18-6.19 15.35-28.25h-47.15a2.285 2.285 0 0 1-.96-.22 99 99 0 0 0-38.11-7.69 113.759 113.759 0 0 0-39.91 7.72 2.333 2.333 0 0 1-.89.19h-47.15c1.18 22.04 14.98 28.08 15.6 28.34.07 0 9.69 2.49 26.01-.14a2.256 2.256 0 0 1 1.86.54 2.229 2.229 0 0 1 .75 1.78c-1.28 31.62 13.26 67.14 13.4 67.49a2.153 2.153 0 0 1 .17.74zm29.01 17.95c-27.04-.99-33.1-15.97-33.35-16.61a2.581 2.581 0 0 1-.15-.68l-1.22-21.12c-1.6-3.95-14.11-35.85-13.67-66.33-15.96 2.15-25.11-.34-25.51-.46-.98-.38-18.38-7.76-18.72-34.84a2.27 2.27 0 0 1 .66-1.61 2.239 2.239 0 0 1 1.6-.67h49.03a116.954 116.954 0 0 1 41.25-7.91 102.634 102.634 0 0 1 39.56 7.91h48.99a2.254 2.254 0 0 1 2.25 2.28c-.33 27.08-17.73 34.46-18.47 34.76-.63.19-9.82 2.69-25.75.54.45 30.48-12.07 62.38-13.67 66.33l-1.22 21.12a3.5 3.5 0 0 1-.07.45c-.18.64-4.47 15.84-31.54 16.84m-35.31 53.94a4.66 4.66 0 0 0-4.58-4.74h-9.95v9.49h9.95a4.669 4.669 0 0 0 4.58-4.75m-5.43-17.78h-9.1v9.08h9.1a4.543 4.543 0 0 0 0-9.08m9.55 17.99a8.6 8.6 0 0 1-8.7 8.5h-12.01a2.063 2.063 0 0 1-2.06-2.06v-26.33a2.063 2.063 0 0 1 2.06-2.06h11.16a8.4 8.4 0 0 1 8.49 8.32 8.264 8.264 0 0 1-3.06 6.42 8.413 8.413 0 0 1 4.12 7.21m27.88 6.52a1.976 1.976 0 0 1-1.97 1.98h-17.66a2.049 2.049 0 0 1-2.05-2.06v-26.33a2.049 2.049 0 0 1 2.05-2.06h17.66a1.98 1.98 0 0 1 0 3.96h-15.6v10.18h13.18a1.98 1.98 0 0 1 0 3.96h-13.18v8.39l15.6-.01a1.978 1.978 0 0 1 1.97 1.99m28.2 0a1.976 1.976 0 0 1-1.97 1.98h-17.66a2.055 2.055 0 0 1-2.05-2.06v-26.33a2.055 2.055 0 0 1 2.05-2.06h17.66a1.98 1.98 0 0 1 0 3.96h-15.6v10.18h13.18a1.98 1.98 0 1 1 0 3.96h-13.18v8.39l15.6-.01a1.978 1.978 0 0 1 1.97 1.99m28.21-26.49a1.978 1.978 0 0 1-1.98 1.98h-15.6v10.18h13.18a1.98 1.98 0 1 1 0 3.96h-13.18v10.29a2.055 2.055 0 1 1-4.11 0v-26.33a2.055 2.055 0 0 1 2.05-2.06h17.66a1.985 1.985 0 0 1 1.98 1.98"/></svg>