<svg xmlns="http://www.w3.org/2000/svg" width="379" height="438" viewBox="0 0 379 438"><defs><style>.cls-1{fill:#82c0ac;fill-rule:evenodd}</style></defs><path class="cls-1" d="M15.83 319.34V118.65L189.5 18.31l173.67 100.34v200.69L189.5 419.69zM189.5 0L-.01 109.5v218.99l189.51 109.5 189.51-109.5V109.5zm-39.22 181.02c-.01.08-.01.16-.02.25v-.02c.01-.07.01-.15.02-.23m78.43 0c.01.07.01.15.02.23v.02c-.01-.09-.01-.17-.02-.25m-73.91.34c-.15 6.19 2.05 20.49 3.36 29.03l.64 4.21c2.39 16.37 8.62 43.84 23.53 43.84h14.33c14.91 0 21.14-27.47 23.54-43.84l.65-4.32c1.31-8.51 3.5-22.76 3.34-28.91v-.09a2.264 2.264 0 0 1 2.25-2.24h.02a2.267 2.267 0 0 1 1.57.63c.91.19 4.62.49 17.24-2.02 13.65-2.72 27.26-21.05 33.18-30.01-4.23.66-11.07 1.14-22.08.86-21.52-.54-25.44 6.41-25.47 6.48a2.359 2.359 0 0 1-1.83 1.23 2.263 2.263 0 0 1-2-.83c-.06-.09-6.65-8.49-10.32-11.52-1.82-.92-15.91-7.81-27.25-7.81-11.36 0-25.43 6.89-27.26 7.81-3.66 3.03-10.25 11.43-10.32 11.52a2.219 2.219 0 0 1-2.05.85 2.264 2.264 0 0 1-1.8-1.31c0-.01-3.95-6.95-25.45-6.42-11.02.29-17.85-.2-22.07-.86 5.92 8.96 19.54 27.29 33.17 30.01 12.62 2.51 16.34 2.21 17.24 2.02a2.267 2.267 0 0 1 1.57-.63h.02a2.264 2.264 0 0 1 2.25 2.24v.08zm41.86 81.63h-14.33c-17.41 0-24.85-25.96-28.02-47.73l-.63-4.18c-1.16-7.52-2.99-19.43-3.36-26.77-2.75.14-7.82-.28-17.49-2.21-20.07-3.99-38.53-35.74-39.3-37.09a2.271 2.271 0 0 1 3.49-2.82c.06 0 4.3 2.3 25.49 1.77 17.05-.42 24.43 3.59 27.59 6.44 2.38-2.91 6.64-7.95 9.48-10.23a2.349 2.349 0 0 1 .37-.24c.66-.34 16.33-8.42 29.55-8.42s28.88 8.08 29.54 8.42a2.445 2.445 0 0 1 .38.24c2.84 2.28 7.1 7.32 9.48 10.23 3.15-2.85 10.64-6.86 27.59-6.44 21.4.54 25.51-1.81 25.68-1.92a2.139 2.139 0 0 1 2.85 0 2.339 2.339 0 0 1 .44 2.97c-.77 1.35-19.23 33.1-39.29 37.09-9.67 1.93-14.74 2.36-17.5 2.21-.36 7.32-2.18 19.17-3.33 26.66l-.65 4.29c-3.18 21.77-10.62 47.73-28.03 47.73m-40.23 60.94a1.989 1.989 0 0 0-1.99-1.99h-17.02V297.4a2.065 2.065 0 1 0-4.13 0v26.46a2.057 2.057 0 0 0 2.06 2.06h19.09a1.989 1.989 0 0 0 1.99-1.99m23.21-9.57l-5.42-12.32-5.43 12.32h10.85zm7.28 11.39a2.076 2.076 0 0 1-2.73-1.06l-2.72-6.19h-14.5l-2.72 6.19a2.071 2.071 0 1 1-3.79-1.67l11.85-26.72a2.091 2.091 0 0 1 3.82 0l11.85 26.72a2.076 2.076 0 0 1-1.06 2.73m36.35-28.35a2.072 2.072 0 0 0-3.76-1.19l-11.2 13.68-11.2-13.68a2.066 2.066 0 0 0-3.75 1.19v26.45a2.065 2.065 0 1 0 4.13 0V303l9.25 11.3a2.053 2.053 0 0 0 3.14 0l9.25-11.3v20.85a2.07 2.07 0 0 0 4.14 0V297.4m25.01 19.78a4.69 4.69 0 0 0-4.61-4.76h-10.01v9.52h10.01a4.69 4.69 0 0 0 4.61-4.76m-5.47-17.86h-9.15v9.12h9.15a4.563 4.563 0 0 0 0-9.12m9.6 18.07a8.629 8.629 0 0 1-8.74 8.53h-12.08a2.059 2.059 0 0 1-2.06-2.07V297.4a2.066 2.066 0 0 1 2.06-2.07h11.22a8.445 8.445 0 0 1 8.53 8.36 8.287 8.287 0 0 1-3.07 6.45 8.464 8.464 0 0 1 4.14 7.25"/></svg>