<svg xmlns="http://www.w3.org/2000/svg" width="271" height="311" viewBox="0 0 271 311"><defs><style>.cls-1{fill:#fff;fill-rule:evenodd}</style></defs><path id="icon" class="cls-1" d="M6668.32 552.749v-142.5L6792.5 339l124.17 71.249v142.5L6792.5 624zM6792.5 326L6657 403.749v155.5L6792.5 637l135.5-77.751v-155.5zm-20.18 173.932c.66 1.365 5.02 9 20.86 9.58 15.86-.582 19.11-8.408 19.49-9.486l.88-15.145a1.575 1.575 0 0 1 .12-.524c.11-.253 10.56-25.589 9.64-48.144a1.619 1.619 0 0 1 .54-1.273 1.644 1.644 0 0 1 1.34-.386c11.88 1.9 18.81.058 18.87.039.27-.121 10.19-4.418 11.03-20.154h-33.88a1.7 1.7 0 0 1-.7-.154 71.563 71.563 0 0 0-27.39-5.485 82.166 82.166 0 0 0-28.69 5.509 1.627 1.627 0 0 1-.64.13h-33.89c.85 15.724 10.77 20.031 11.21 20.216.06 0 6.97 1.781 18.7-.1a1.651 1.651 0 0 1 1.34.386 1.619 1.619 0 0 1 .54 1.273c-.92 22.555 9.53 47.891 9.63 48.144a1.575 1.575 0 0 1 .12.524zm20.86 12.8c-19.44-.705-23.8-11.39-23.98-11.843a2.01 2.01 0 0 1-.1-.486l-.88-15.069c-1.15-2.813-10.14-25.571-9.83-47.313-11.47 1.537-18.04-.245-18.33-.325-.7-.273-13.21-5.54-13.46-24.852a1.618 1.618 0 0 1 1.63-1.633h35.24a84.635 84.635 0 0 1 29.65-5.64 74.283 74.283 0 0 1 28.43 5.64h35.22a1.622 1.622 0 0 1 1.15.478 1.573 1.573 0 0 1 .47 1.155c-.24 19.312-12.75 24.579-13.28 24.794-.45.137-7.05 1.92-18.51.383.32 21.742-8.67 44.5-9.82 47.313l-.88 15.069c-.01.108-.03.212-.05.317-.13.46-3.22 11.3-22.67 12.012m-25.38 38.478a3.335 3.335 0 0 0-3.3-3.378h-7.15v6.768h7.15a3.347 3.347 0 0 0 3.3-3.386m-3.91-12.681h-6.54v6.478h6.54a3.24 3.24 0 0 0 0-6.478m6.87 12.832a6.157 6.157 0 0 1-6.26 6.062h-8.63a1.48 1.48 0 0 1-1.48-1.472v-18.78a1.48 1.48 0 0 1 1.48-1.47h8.02a6.012 6.012 0 0 1 6.1 5.936 5.863 5.863 0 0 1-2.2 4.58 5.98 5.98 0 0 1 2.97 5.143m20.04 4.646a1.413 1.413 0 0 1-1.42 1.414h-12.69a1.473 1.473 0 0 1-1.48-1.47v-18.781a1.473 1.473 0 0 1 1.48-1.471h12.69a1.414 1.414 0 1 1 0 2.828h-11.21v7.259h9.47a1.414 1.414 0 1 1 0 2.828h-9.47v5.983h11.21a1.412 1.412 0 0 1 1.42 1.413m20.27 0a1.413 1.413 0 0 1-1.42 1.414h-12.69a1.473 1.473 0 0 1-1.48-1.47v-18.784a1.473 1.473 0 0 1 1.48-1.471h12.69a1.414 1.414 0 1 1 0 2.828h-11.21v7.259h9.47a1.414 1.414 0 1 1 0 2.828h-9.47v5.983h11.21a1.412 1.412 0 0 1 1.42 1.413m20.27-18.892a1.413 1.413 0 0 1-1.42 1.414h-11.21v7.259h9.48a1.415 1.415 0 1 1 0 2.83h-9.48v7.337a1.48 1.48 0 0 1-2.96 0v-18.788a1.481 1.481 0 0 1 1.48-1.471h12.69a1.412 1.412 0 0 1 1.42 1.413" transform="translate(-6657 -326)"/></svg>