<svg xmlns="http://www.w3.org/2000/svg" width="168" height="193" viewBox="0 0 168 193"><defs><style>.cls-1{fill:#fff;fill-rule:evenodd}</style></defs><path id="Logo_" data-name="Logo" class="cls-1" d="M260 429.259v96.491L344.009 574l84-48.248v-96.493l-84-48.248zm158.221 90.872l-74.216 42.624-74.217-42.624v-85.252l74.217-42.624 74.216 42.624v85.252zm-64.453-37.043a9.665 9.665 0 0 1 1.4.141v-50.285c8.71 2.869 17.132 31.609 17.483 53.287h-11.773a9.585 9.585 0 0 1 1.817 2.79h12.785v-1.4c0-19.814-8.451-57.706-21.7-57.706h-1.4v54.564a1.4 1.4 0 0 1 1.392-1.391zm5.794-12.654a1.4 1.4 0 0 0 .992-.41l4.3-4.28a1.4 1.4 0 0 0-1.983-1.973l-4.3 4.281a1.4 1.4 0 0 0 .995 2.382zm8.67-2.019a1.405 1.405 0 0 0-1.983 0l-7.678 7.635a1.4 1.4 0 0 0 1.983 1.973l7.678-7.634a1.392 1.392 0 0 0 .004-1.974zM335 489.021h-1.4v30.571a2.724 2.724 0 0 1-5.448 0v-30.571h-1.4a1.387 1.387 0 0 1-1.392-1.44c0 .016-.01.029-.01.045v31.966a5.529 5.529 0 0 0 11.058 0v-31.966c0-.015-.007-.028-.007-.043a1.389 1.389 0 0 1-.375 1 1.4 1.4 0 0 1-1.026.438zm3.7-59.695a1.4 1.4 0 0 0-1.534 1.034l-5.919 22.81h-1.973l-5.651-22.8a1.4 1.4 0 0 0-2.765.335v28.619a1.412 1.412 0 0 0 .237.778l5.534 8.219-1.278 19.208a.4.4 0 0 0 .007.048 1.394 1.394 0 0 1 1.392-1.35h1.5l1.211-18.2a1.4 1.4 0 0 0-.235-.87l-5.562-8.26v-16.704l3.15 12.707a1.4 1.4 0 0 0 1.362 1.06h4.16a1.4 1.4 0 0 0 1.357-1.046l3.429-13.215v17.273l-4.547 8.3a1.406 1.406 0 0 0-.17.754l1.109 18.2H335a1.4 1.4 0 0 1 1.395 1.352c0-.015.006-.028 0-.043l-1.175-19.282 4.534-8.253a1.393 1.393 0 0 0 .172-.668v-28.623a1.4 1.4 0 0 0-1.226-1.383zm-3.7 56.9h-8.25a1.4 1.4 0 1 0 0 2.79H335a1.4 1.4 0 0 0 1.02-.439 1.4 1.4 0 0 0-1.02-2.346zm22.9 38.861a5.522 5.522 0 0 0 5.529-5.5V492.67a9.485 9.485 0 0 0-.734-3.649h-.5l-2.975-2.633-6.853-1.507v34.711a5.521 5.521 0 0 0 5.533 5.5zm-2.725-39.075a6.812 6.812 0 0 1 5.448 6.653v26.922a2.724 2.724 0 0 1-5.448 0v-33.57zm-2.805-1.533zm2.805-1.255v.932l4.641 2.07h1.062a9.6 9.6 0 0 0-5.703-2.997zm7.023 5.792h.5a9.585 9.585 0 0 0-1.817-2.79h-1.062l-4.641-2.07v-.932a9.665 9.665 0 0 0-1.4-.141 1.4 1.4 0 0 0-1.4 1.4v.4l6.853 1.507z" transform="translate(-260 -381)"/></svg>