<svg xmlns="http://www.w3.org/2000/svg" viewBox="0 0 157.08 37.35"><defs><style>.cls-1{fill:#e10d1b}</style></defs><title>Asset 2</title><g id="Layer_2" data-name="Layer 2"><path class="cls-1" d="M93.33 37.35c-11.16 0-27.88-.28-44.14-1.62-25.57-2.09-41.34-6.06-46.87-11.8A7.31 7.31 0 0 1 0 18.37C.72 4.35 36.54 0 49.51 0H50c9.68.08 33.2 1.27 55 3.67.44 0 .88 0 1.29.06h.31v.1c35.68 4 46 8.9 48.42 12.29a5.34 5.34 0 0 1 .68 5.88c-1.73 3.38-7.3 6.12-14.58 8.22 8.92-2.12 15.1-4 15.24-4.08l.29-.1.43 1.37-.29.09c-.3.09-30.37 9.45-54.35 9.81-2.89.01-5.96.04-9.11.04zM49.51.61C36.7.61 1.31 4.83.62 18.4a6.74 6.74 0 0 0 2.13 5.11C8.18 29.14 23.82 33 49.24 35.13c16.24 1.33 32.94 1.61 44.09 1.61 3.15 0 6.21 0 9.1-.07 22.63-.34 50.72-8.73 53.88-9.69l-.06-.2c-3.16 1-31.26 9.34-53.82 9.68-14.31.21-86.33.58-99.52-13.1a6.53 6.53 0 0 1-2.08-4.95C1.19 11.31 11.58 7 20.23 4.72A123.07 123.07 0 0 1 50 .82c8.48.07 25 .86 42.72 2.45v.61c-8.9-.19-26.35-.35-43.24.61C20.14 6.17 4.22 10.37 2.15 17a4.38 4.38 0 0 0 .76 4.12c3.75 5.06 18.94 9 43.94 11.39 21.41 2 44.35 2.42 54.53 2.32 19.08-.2 49.37-4.5 53.78-13.12a4.79 4.79 0 0 0-.61-5.21c-3.34-4.72-20-8.89-48.27-12.06h-.29v-.12l-1-.05C83.16 1.88 59.66.69 50 .61zM1.56 19.85a6.5 6.5 0 0 0 1.79 3.09c13 13.5 84.81 13.12 99.07 12.91a150.42 150.42 0 0 0 22.14-2.26 183.21 183.21 0 0 1-23.18 1.83c-22.82.23-90-1.83-99-14a5.6 5.6 0 0 1-.82-1.57zm47.8-18.42a122.43 122.43 0 0 0-29 3.88C13.68 7.11 5.9 10.08 2.8 14.59 7.48 9 23.11 5.39 49.4 3.88c12.41-.71 25.12-.8 34.52-.73C69.68 2 57 1.49 49.94 1.43zM98 34.61c-11.26 0-31.71-.48-51-2.31C22 29.92 6.81 26 3.08 21a4.16 4.16 0 0 1-.73-4C4.9 8.93 29.37 5.85 49.45 4.7c8.79-.5 18.67-.7 29.34-.7 9 0 18.68.19 26 .52 20.32 2.24 45.41 6.16 49.63 12.14a4.51 4.51 0 0 1 .59 5c-3.83 7.49-30.81 12.77-53.6 13zm-19.21-30c-10.66 0-20.52.25-29.31.75-36 2.06-45.2 7.62-46.55 11.92a3.54 3.54 0 0 0 .64 3.38C7.19 25.5 22.23 29.33 47 31.69c21.41 2 44.22 2.4 54.33 2.3a168.86 168.86 0 0 0 33.69-3.73c10.78-2.43 17.66-5.61 19.37-9a4 4 0 0 0-.55-4.35c-3.19-4.52-20.65-8.74-49.17-11.88-7.22-.28-16.91-.47-25.88-.47z" id="Layer_1-2" data-name="Layer 1"/></g></svg>